<svg xmlns="http://www.w3.org/2000/svg" width="800" height="500" viewBox="0 0 800 500" font-family="'Noto Serif JP','Noto Sans JP','Hiragino Kaku Gothic ProN',sans-serif">
<defs>
  <filter id="shadow" x="-10%" y="-10%" width="120%" height="130%">
    <feDropShadow dx="0" dy="2" stdDeviation="3" flood-color="#000" flood-opacity="0.06"/>
  </filter>
  <linearGradient id="gradHeader" x1="0%" y1="0%" x2="100%" y2="0%">
    <stop offset="0%" style="stop-color:#2d5a27;stop-opacity:1" />
    <stop offset="100%" style="stop-color:#4a7a3a;stop-opacity:1" />
  </linearGradient>
</defs>
<rect width="800" height="500" fill="#f5f2ec"/>
<line x1="0" y1="76" x2="800" y2="76" stroke="#c8b89a" stroke-width="0.5" opacity="0.18"/>
<line x1="0" y1="100" x2="800" y2="100" stroke="#c8b89a" stroke-width="0.5" opacity="0.18"/>
<line x1="0" y1="124" x2="800" y2="124" stroke="#c8b89a" stroke-width="0.5" opacity="0.18"/>
<line x1="0" y1="148" x2="800" y2="148" stroke="#c8b89a" stroke-width="0.5" opacity="0.18"/>
<line x1="0" y1="172" x2="800" y2="172" stroke="#c8b89a" stroke-width="0.5" opacity="0.18"/>
<line x1="0" y1="196" x2="800" y2="196" stroke="#c8b89a" stroke-width="0.5" opacity="0.18"/>
<line x1="0" y1="220" x2="800" y2="220" stroke="#c8b89a" stroke-width="0.5" opacity="0.18"/>
<line x1="0" y1="244" x2="800" y2="244" stroke="#c8b89a" stroke-width="0.5" opacity="0.18"/>
<line x1="0" y1="268" x2="800" y2="268" stroke="#c8b89a" stroke-width="0.5" opacity="0.18"/>
<line x1="0" y1="292" x2="800" y2="292" stroke="#c8b89a" stroke-width="0.5" opacity="0.18"/>
<line x1="0" y1="316" x2="800" y2="316" stroke="#c8b89a" stroke-width="0.5" opacity="0.18"/>
<line x1="0" y1="340" x2="800" y2="340" stroke="#c8b89a" stroke-width="0.5" opacity="0.18"/>
<line x1="0" y1="364" x2="800" y2="364" stroke="#c8b89a" stroke-width="0.5" opacity="0.18"/>
<line x1="0" y1="388" x2="800" y2="388" stroke="#c8b89a" stroke-width="0.5" opacity="0.18"/>
<line x1="0" y1="412" x2="800" y2="412" stroke="#c8b89a" stroke-width="0.5" opacity="0.18"/>
<line x1="0" y1="436" x2="800" y2="436" stroke="#c8b89a" stroke-width="0.5" opacity="0.18"/>
<line x1="0" y1="460" x2="800" y2="460" stroke="#c8b89a" stroke-width="0.5" opacity="0.18"/>
<line x1="0" y1="484" x2="800" y2="484" stroke="#c8b89a" stroke-width="0.5" opacity="0.18"/>
<path d="M780 72 C740 72 710 100 720 130 C730 160 780 150 780 130 Z" fill="#2d5a27" opacity="0.06"/>
<path d="M780 130 L745 100" stroke="#2d5a27" stroke-width="0.8" opacity="0.06"/>
<rect x="0" y="0" width="800" height="64" fill="url(#gradHeader)"/>
<text x="22" y="32" font-size="22" dominant-baseline="middle">🐠</text>
<text x="54" y="32" font-size="13" fill="#fefcf8" font-weight="600" dominant-baseline="middle" letter-spacing="0.06em">水族館</text>
<text x="778" y="26" font-size="11" fill="rgba(255,255,255,0.65)" text-anchor="end">2025-11-20</text>
<text x="778" y="44" font-size="9" fill="#c8a84b" text-anchor="end" font-weight="700" letter-spacing="0.05em">ZOO KNOWLEDGE VAULT</text>
<rect x="20" y="82" width="760" height="80" fill="#fefcf8" rx="10" filter="url(#shadow)" stroke="#d8d0c4" stroke-width="0.5"/>
<rect x="20" y="82" width="760" height="3" fill="#c8a84b" rx="10"/>
<text x="40" y="112" font-size="20" fill="#2c2820" font-weight="700" letter-spacing="0.01em">【2025年11月】水族館・水生生物実</text>
<text x="40" y="138" font-size="20" fill="#2c2820" font-weight="700" letter-spacing="0.01em">装ノート：冬季低温展示の省エネ運転</text>
<rect x="40" y="134" width="3" height="16" fill="#2d5a27" rx="2"/>
<text x="52" y="146" font-size="11" fill="#6b5e52" font-weight="500">【2025年11月】水族館・水生生物実装ノート：冬季低温展示の省エネ運転</text>
<text x="400" y="182" font-size="11" fill="#c8a84b" font-weight="700" text-anchor="middle">【2025年11月】水族館・水生生物実装</text>
<line x1="70" y1="188" x2="70" y2="415" stroke="#d8d0c4" stroke-width="1"/>
<line x1="70" y1="415" x2="780" y2="415" stroke="#d8d0c4" stroke-width="1"/>
<line x1="70" y1="341" x2="780" y2="341" stroke="#d8d0c4" stroke-width="0.5" stroke-dasharray="4,4" opacity="0.6"/>
<text x="66" y="341" font-size="9" fill="#6b5e52" text-anchor="end" dominant-baseline="middle">31</text>
<line x1="70" y1="266" x2="780" y2="266" stroke="#d8d0c4" stroke-width="0.5" stroke-dasharray="4,4" opacity="0.6"/>
<text x="66" y="266" font-size="9" fill="#6b5e52" text-anchor="end" dominant-baseline="middle">63</text>
<line x1="70" y1="188" x2="780" y2="188" stroke="#d8d0c4" stroke-width="0.5" stroke-dasharray="4,4" opacity="0.6"/>
<text x="66" y="188" font-size="9" fill="#6b5e52" text-anchor="end" dominant-baseline="middle">95</text>
<rect x="195" y="188" width="70" height="227" fill="#2d5a27" opacity="0.72" rx="3"/>
<text x="230" y="183" font-size="10" fill="#2c2820" font-weight="700" text-anchor="middle">95%</text>
<text x="230" y="429" font-size="10" fill="#6b5e52" text-anchor="middle">| 実施率 | 日次</text>
<rect x="390" y="200" width="70" height="215" fill="#2d5a27" opacity="0.72" rx="3"/>
<text x="425" y="195" font-size="10" fill="#2c2820" font-weight="700" text-anchor="middle">90%</text>
<text x="425" y="429" font-size="10" fill="#6b5e52" text-anchor="middle">| 是正完了率 | </text>
<rect x="585" y="413" width="70" height="2" fill="#2d5a27" opacity="0.72" rx="3"/>
<text x="620" y="408" font-size="10" fill="#2c2820" font-weight="700" text-anchor="middle">1件</text>
<text x="620" y="429" font-size="10" fill="#6b5e52" text-anchor="middle">5. 月末に改善提案</text>
<rect x="20" y="444" width="760" height="40" fill="#eef3eb" rx="8" stroke="#d8d0c4" stroke-width="0.5"/>
<text x="40" y="466" font-size="10" fill="#2d5a27" font-weight="700" dominant-baseline="middle" letter-spacing="0.04em">| 実施率 | 日次</text>
<text x="760" y="466" font-size="16" fill="#2c2820" font-weight="700" text-anchor="end" dominant-baseline="middle">95%</text>
</svg>