<svg xmlns="http://www.w3.org/2000/svg" width="800" height="440" viewBox="0 0 800 440" font-family="'Noto Sans JP','Hiragino Sans','Yu Gothic',sans-serif">
<rect width="800" height="440" fill="#faf8f5"/>
<circle cx="800" cy="0" r="200" fill="#d8f3dc" opacity="0.4"/>
<circle cx="800" cy="440" r="140" fill="#95d5b2" opacity="0.25"/>
<circle cx="0" cy="440" r="90" fill="#52796f" opacity="0.12"/>
<rect x="0" y="0" width="800" height="72" fill="#2d6a4f"/>
<text x="18" y="46" font-size="28" dominant-baseline="middle">🐠</text>
<text x="56" y="42" font-size="16" fill="#ffffff" font-weight="bold" dominant-baseline="middle">水族館</text>
<text x="786" y="42" font-size="13" fill="#95d5b2" text-anchor="end" dominant-baseline="middle">2025-06-30</text>
<text x="786" y="60" font-size="11" fill="#95d5b2" opacity="0.8" text-anchor="end">Zoo Knowledge Vault</text>
<text x="20" y="100" font-size="22" fill="#2b2926" font-weight="bold">【週次まとめ】2025年6月最終週および第2四半期総</text>
<text x="20" y="124" font-size="22" fill="#2b2926" font-weight="bold">括</text>
<rect x="20" y="140" width="60" height="3" fill="#95d5b2" rx="2"/>
<rect x="0" y="150" width="800" height="40" fill="#52796f" opacity="0.1"/>
<text x="20" y="175" font-size="14" fill="#52796f" font-weight="bold">▶ 6月の最終週（6/22〜6/30）は、2025年度第1四半期の締めくくり（日本国内の年度ベース）とともに、2025年第2四半期（Q2：4月〜6月</text>
<rect x="12" y="196" width="188" height="110" fill="#ffffff" rx="8" stroke="#b7e4c7" stroke-width="1.5"/>
<circle cx="36" cy="220" r="18" fill="#d8f3dc"/>
<text x="36" y="220" font-size="18" text-anchor="middle" dominant-baseline="middle">🌱</text>
<text x="62" y="216" font-size="13" fill="#2d6a4f" font-weight="bold">今週の主要動向（</text>
<text x="22" y="251" font-size="12" fill="#1a1a1a">6月の最終週（6/22〜6/30）は、</text>
<text x="22" y="268" font-size="12" fill="#1a1a1a">2025年度第1四</text>
<circle cx="186" cy="210" r="11" fill="#52796f"/>
<text x="186" y="210" font-size="12" fill="white" text-anchor="middle" dominant-baseline="middle">1</text>
<rect x="208" y="196" width="188" height="110" fill="#ffffff" rx="8" stroke="#b7e4c7" stroke-width="1.5"/>
<circle cx="232" cy="220" r="18" fill="#d8f3dc"/>
<text x="232" y="220" font-size="18" text-anchor="middle" dominant-baseline="middle">🌿</text>
<text x="258" y="216" font-size="13" fill="#2d6a4f" font-weight="bold">2025年 第2</text>
<text x="218" y="251" font-size="12" fill="#1a1a1a">2025年度のQ2は、园館の「機能更新」と「</text>
<text x="218" y="268" font-size="12" fill="#1a1a1a">多層的な教育</text>
<circle cx="382" cy="210" r="11" fill="#52796f"/>
<text x="382" y="210" font-size="12" fill="white" text-anchor="middle" dominant-baseline="middle">2</text>
<rect x="404" y="196" width="188" height="110" fill="#ffffff" rx="8" stroke="#b7e4c7" stroke-width="1.5"/>
<circle cx="428" cy="220" r="18" fill="#d8f3dc"/>
<text x="428" y="220" font-size="18" text-anchor="middle" dominant-baseline="middle">🍃</text>
<text x="454" y="216" font-size="13" fill="#2d6a4f" font-weight="bold">全体傾向と現場へ</text>
<text x="414" y="251" font-size="12" fill="#1a1a1a">「生命の尊厳と、科学的合理性の高度な融和」が</text>
<text x="414" y="268" font-size="12" fill="#1a1a1a">Q2を通じた</text>
<circle cx="578" cy="210" r="11" fill="#52796f"/>
<text x="578" y="210" font-size="12" fill="white" text-anchor="middle" dominant-baseline="middle">3</text>
<rect x="600" y="196" width="188" height="110" fill="#ffffff" rx="8" stroke="#b7e4c7" stroke-width="1.5"/>
<circle cx="624" cy="220" r="18" fill="#d8f3dc"/>
<text x="624" y="220" font-size="18" text-anchor="middle" dominant-baseline="middle">🌾</text>
<text x="650" y="216" font-size="13" fill="#2d6a4f" font-weight="bold">参照元</text>
<text x="610" y="254" font-size="12" fill="#1a1a1a">- 2025年 Q2 各地園館 活動報告書</text>
<circle cx="774" cy="210" r="11" fill="#52796f"/>
<text x="774" y="210" font-size="12" fill="white" text-anchor="middle" dominant-baseline="middle">4</text>
<rect x="12" y="318" width="220" height="54" fill="#2d6a4f" rx="8"/>
<text x="24" y="338" font-size="11" fill="#95d5b2"></text>
<text x="24" y="362" font-size="22" fill="#ffffff" font-weight="bold"></text>
<line x1="248" y1="324" x2="248" y2="366" stroke="#b7e4c7" stroke-width="1"/>
<text x="262" y="340" font-size="11" fill="#666666">Zoo Knowledge Vault</text>
<text x="262" y="360" font-size="13" fill="#52796f" font-weight="bold">水族館</text>
<circle cx="770" cy="345" r="22" fill="#d8f3dc"/>
<text x="770" y="345" font-size="20" text-anchor="middle" dominant-baseline="middle">🐠</text>
</svg>