<svg xmlns="http://www.w3.org/2000/svg" width="800" height="500" viewBox="0 0 800 500" font-family="'Noto Serif JP','Noto Sans JP','Hiragino Kaku Gothic ProN',sans-serif">
<defs>
  <filter id="shadow" x="-10%" y="-10%" width="120%" height="130%">
    <feDropShadow dx="0" dy="2" stdDeviation="3" flood-color="#000" flood-opacity="0.06"/>
  </filter>
  <linearGradient id="gradHeader" x1="0%" y1="0%" x2="100%" y2="0%">
    <stop offset="0%" style="stop-color:#2d5a27;stop-opacity:1" />
    <stop offset="100%" style="stop-color:#4a7a3a;stop-opacity:1" />
  </linearGradient>
</defs>
<rect width="800" height="500" fill="#f5f2ec"/>
<line x1="0" y1="76" x2="800" y2="76" stroke="#c8b89a" stroke-width="0.5" opacity="0.18"/>
<line x1="0" y1="100" x2="800" y2="100" stroke="#c8b89a" stroke-width="0.5" opacity="0.18"/>
<line x1="0" y1="124" x2="800" y2="124" stroke="#c8b89a" stroke-width="0.5" opacity="0.18"/>
<line x1="0" y1="148" x2="800" y2="148" stroke="#c8b89a" stroke-width="0.5" opacity="0.18"/>
<line x1="0" y1="172" x2="800" y2="172" stroke="#c8b89a" stroke-width="0.5" opacity="0.18"/>
<line x1="0" y1="196" x2="800" y2="196" stroke="#c8b89a" stroke-width="0.5" opacity="0.18"/>
<line x1="0" y1="220" x2="800" y2="220" stroke="#c8b89a" stroke-width="0.5" opacity="0.18"/>
<line x1="0" y1="244" x2="800" y2="244" stroke="#c8b89a" stroke-width="0.5" opacity="0.18"/>
<line x1="0" y1="268" x2="800" y2="268" stroke="#c8b89a" stroke-width="0.5" opacity="0.18"/>
<line x1="0" y1="292" x2="800" y2="292" stroke="#c8b89a" stroke-width="0.5" opacity="0.18"/>
<line x1="0" y1="316" x2="800" y2="316" stroke="#c8b89a" stroke-width="0.5" opacity="0.18"/>
<line x1="0" y1="340" x2="800" y2="340" stroke="#c8b89a" stroke-width="0.5" opacity="0.18"/>
<line x1="0" y1="364" x2="800" y2="364" stroke="#c8b89a" stroke-width="0.5" opacity="0.18"/>
<line x1="0" y1="388" x2="800" y2="388" stroke="#c8b89a" stroke-width="0.5" opacity="0.18"/>
<line x1="0" y1="412" x2="800" y2="412" stroke="#c8b89a" stroke-width="0.5" opacity="0.18"/>
<line x1="0" y1="436" x2="800" y2="436" stroke="#c8b89a" stroke-width="0.5" opacity="0.18"/>
<line x1="0" y1="460" x2="800" y2="460" stroke="#c8b89a" stroke-width="0.5" opacity="0.18"/>
<line x1="0" y1="484" x2="800" y2="484" stroke="#c8b89a" stroke-width="0.5" opacity="0.18"/>
<path d="M780 72 C740 72 710 100 720 130 C730 160 780 150 780 130 Z" fill="#2d5a27" opacity="0.06"/>
<path d="M780 130 L745 100" stroke="#2d5a27" stroke-width="0.8" opacity="0.06"/>
<rect x="0" y="0" width="800" height="64" fill="url(#gradHeader)"/>
<text x="22" y="32" font-size="22" dominant-baseline="middle">🐾</text>
<text x="54" y="32" font-size="13" fill="#fefcf8" font-weight="600" dominant-baseline="middle" letter-spacing="0.06em">飼育日誌</text>
<text x="778" y="26" font-size="11" fill="rgba(255,255,255,0.65)" text-anchor="end">2026-02-24</text>
<text x="778" y="44" font-size="9" fill="#c8a84b" text-anchor="end" font-weight="700" letter-spacing="0.05em">ZOO KNOWLEDGE VAULT</text>
<rect x="20" y="82" width="760" height="130" fill="#fefcf8" rx="10" filter="url(#shadow)" stroke="#d8d0c4" stroke-width="0.5"/>
<rect x="20" y="82" width="760" height="3" fill="#c8a84b" rx="10"/>
<text x="40" y="118" font-size="22" fill="#2c2820" font-weight="700" letter-spacing="0.01em">アドベンチャーワールドで7年ぶり</text>
<text x="40" y="148" font-size="22" fill="#2c2820" font-weight="700" letter-spacing="0.01em">となるゴールデンターキンの赤ちゃんが誕生</text>
<rect x="40" y="174" width="3" height="20" fill="#2d5a27" rx="2"/>
<text x="52" y="188" font-size="12" fill="#6b5e52" font-weight="500" letter-spacing="0.01em">この記事のポイントを視覚的にまとめました。</text>
<rect x="14" y="232" width="182" height="168" fill="#fefcf8" rx="10" filter="url(#shadow)" stroke="#d8d0c4" stroke-width="0.5"/>
<rect x="14" y="232" width="182" height="3" fill="#c8a84b" rx="10"/>
<circle cx="42" cy="266" r="15" fill="#eef3eb" stroke="#d8d0c4" stroke-width="0.5"/>
<text x="42" y="267" font-size="13" fill="#2d5a27" font-weight="700" text-anchor="middle" dominant-baseline="middle">1</text>
<text x="64" y="266" font-size="13" fill="#2c2820" font-weight="700" dominant-baseline="middle">インフォグラフィ</text>
<text x="30" y="302" font-size="11" fill="#6b5e52">この記事のポイントを</text>
<text x="30" y="321" font-size="11" fill="#6b5e52">視覚的にまとめました。</text>
<rect x="210" y="232" width="182" height="168" fill="#fefcf8" rx="10" filter="url(#shadow)" stroke="#d8d0c4" stroke-width="0.5"/>
<rect x="210" y="232" width="182" height="3" fill="#c8a84b" rx="10"/>
<circle cx="238" cy="266" r="15" fill="#eef3eb" stroke="#d8d0c4" stroke-width="0.5"/>
<text x="238" y="267" font-size="13" fill="#2d5a27" font-weight="700" text-anchor="middle" dominant-baseline="middle">2</text>
<text x="260" y="266" font-size="13" fill="#2c2820" font-weight="700" dominant-baseline="middle">基本情報</text>
<text x="226" y="302" font-size="11" fill="#6b5e52">- 施設名: アドベンチ</text>
<text x="226" y="321" font-size="11" fill="#6b5e52">ャーワールド（和歌山県） / 国</text>
<rect x="406" y="232" width="182" height="168" fill="#fefcf8" rx="10" filter="url(#shadow)" stroke="#d8d0c4" stroke-width="0.5"/>
<rect x="406" y="232" width="182" height="3" fill="#c8a84b" rx="10"/>
<circle cx="434" cy="266" r="15" fill="#eef3eb" stroke="#d8d0c4" stroke-width="0.5"/>
<text x="434" y="267" font-size="13" fill="#2d5a27" font-weight="700" text-anchor="middle" dominant-baseline="middle">3</text>
<text x="456" y="266" font-size="13" fill="#2c2820" font-weight="700" dominant-baseline="middle">概要</text>
<text x="422" y="302" font-size="11" fill="#6b5e52">和歌山県のアドベンチ</text>
<text x="422" y="321" font-size="11" fill="#6b5e52">ャーワールドにて、2026年2月24</text>
<rect x="602" y="232" width="182" height="168" fill="#fefcf8" rx="10" filter="url(#shadow)" stroke="#d8d0c4" stroke-width="0.5"/>
<rect x="602" y="232" width="182" height="3" fill="#c8a84b" rx="10"/>
<circle cx="630" cy="266" r="15" fill="#eef3eb" stroke="#d8d0c4" stroke-width="0.5"/>
<text x="630" y="267" font-size="13" fill="#2d5a27" font-weight="700" text-anchor="middle" dominant-baseline="middle">4</text>
<text x="652" y="266" font-size="13" fill="#2c2820" font-weight="700" dominant-baseline="middle">詳細</text>
<text x="618" y="302" font-size="11" fill="#6b5e52">ゴールデンターキンは</text>
<text x="618" y="321" font-size="11" fill="#6b5e52">中国の山岳地帯に生息す希少な偶蹄目で</text>
<rect x="20" y="444" width="760" height="40" fill="#eef3eb" rx="8" stroke="#d8d0c4" stroke-width="0.5"/>
<text x="40" y="466" font-size="10" fill="#2d5a27" font-weight="700" dominant-baseline="middle" letter-spacing="0.04em">注目データ</text>
<text x="760" y="466" font-size="16" fill="#2c2820" font-weight="700" text-anchor="end" dominant-baseline="middle">—</text>
</svg>