<svg xmlns="http://www.w3.org/2000/svg" width="800" height="500" viewBox="0 0 800 500" font-family="'Noto Serif JP','Noto Sans JP','Hiragino Kaku Gothic ProN',sans-serif">
<defs>
  <filter id="shadow" x="-10%" y="-10%" width="120%" height="130%">
    <feDropShadow dx="0" dy="2" stdDeviation="3" flood-color="#000" flood-opacity="0.06"/>
  </filter>
  <linearGradient id="gradHeader" x1="0%" y1="0%" x2="100%" y2="0%">
    <stop offset="0%" style="stop-color:#2d5a27;stop-opacity:1" />
    <stop offset="100%" style="stop-color:#4a7a3a;stop-opacity:1" />
  </linearGradient>
</defs>
<rect width="800" height="500" fill="#f5f2ec"/>
<line x1="0" y1="76" x2="800" y2="76" stroke="#c8b89a" stroke-width="0.5" opacity="0.18"/>
<line x1="0" y1="100" x2="800" y2="100" stroke="#c8b89a" stroke-width="0.5" opacity="0.18"/>
<line x1="0" y1="124" x2="800" y2="124" stroke="#c8b89a" stroke-width="0.5" opacity="0.18"/>
<line x1="0" y1="148" x2="800" y2="148" stroke="#c8b89a" stroke-width="0.5" opacity="0.18"/>
<line x1="0" y1="172" x2="800" y2="172" stroke="#c8b89a" stroke-width="0.5" opacity="0.18"/>
<line x1="0" y1="196" x2="800" y2="196" stroke="#c8b89a" stroke-width="0.5" opacity="0.18"/>
<line x1="0" y1="220" x2="800" y2="220" stroke="#c8b89a" stroke-width="0.5" opacity="0.18"/>
<line x1="0" y1="244" x2="800" y2="244" stroke="#c8b89a" stroke-width="0.5" opacity="0.18"/>
<line x1="0" y1="268" x2="800" y2="268" stroke="#c8b89a" stroke-width="0.5" opacity="0.18"/>
<line x1="0" y1="292" x2="800" y2="292" stroke="#c8b89a" stroke-width="0.5" opacity="0.18"/>
<line x1="0" y1="316" x2="800" y2="316" stroke="#c8b89a" stroke-width="0.5" opacity="0.18"/>
<line x1="0" y1="340" x2="800" y2="340" stroke="#c8b89a" stroke-width="0.5" opacity="0.18"/>
<line x1="0" y1="364" x2="800" y2="364" stroke="#c8b89a" stroke-width="0.5" opacity="0.18"/>
<line x1="0" y1="388" x2="800" y2="388" stroke="#c8b89a" stroke-width="0.5" opacity="0.18"/>
<line x1="0" y1="412" x2="800" y2="412" stroke="#c8b89a" stroke-width="0.5" opacity="0.18"/>
<line x1="0" y1="436" x2="800" y2="436" stroke="#c8b89a" stroke-width="0.5" opacity="0.18"/>
<line x1="0" y1="460" x2="800" y2="460" stroke="#c8b89a" stroke-width="0.5" opacity="0.18"/>
<line x1="0" y1="484" x2="800" y2="484" stroke="#c8b89a" stroke-width="0.5" opacity="0.18"/>
<path d="M780 72 C740 72 710 100 720 130 C730 160 780 150 780 130 Z" fill="#2d5a27" opacity="0.06"/>
<path d="M780 130 L745 100" stroke="#2d5a27" stroke-width="0.8" opacity="0.06"/>
<rect x="0" y="0" width="800" height="64" fill="url(#gradHeader)"/>
<text x="22" y="32" font-size="22" dominant-baseline="middle">📖</text>
<text x="54" y="32" font-size="13" fill="#fefcf8" font-weight="600" dominant-baseline="middle" letter-spacing="0.06em">種別図鑑</text>
<text x="778" y="26" font-size="11" fill="rgba(255,255,255,0.65)" text-anchor="end">2025-09-20</text>
<text x="778" y="44" font-size="9" fill="#c8a84b" text-anchor="end" font-weight="700" letter-spacing="0.05em">ZOO KNOWLEDGE VAULT</text>
<rect x="20" y="82" width="760" height="80" fill="#fefcf8" rx="10" filter="url(#shadow)" stroke="#d8d0c4" stroke-width="0.5"/>
<rect x="20" y="82" width="760" height="3" fill="#c8a84b" rx="10"/>
<text x="40" y="112" font-size="20" fill="#2c2820" font-weight="700" letter-spacing="0.01em">ツキノワグマ完全図鑑：里山の王と</text>
<text x="40" y="138" font-size="20" fill="#2c2820" font-weight="700" letter-spacing="0.01em">人との共存の課題</text>
<rect x="40" y="134" width="3" height="16" fill="#2d5a27" rx="2"/>
<text x="52" y="146" font-size="11" fill="#6b5e52" font-weight="500">ツキノワグマ完全図鑑：里山の王と人との共存の課題</text>
<text x="400" y="182" font-size="11" fill="#c8a84b" font-weight="700" text-anchor="middle">ツキノワグマ完全図鑑：里山の王と人との共</text>
<line x1="70" y1="188" x2="70" y2="415" stroke="#d8d0c4" stroke-width="1"/>
<line x1="70" y1="415" x2="780" y2="415" stroke="#d8d0c4" stroke-width="1"/>
<line x1="70" y1="341" x2="780" y2="341" stroke="#d8d0c4" stroke-width="0.5" stroke-dasharray="4,4" opacity="0.6"/>
<text x="66" y="341" font-size="9" fill="#6b5e52" text-anchor="end" dominant-baseline="middle">43</text>
<line x1="70" y1="266" x2="780" y2="266" stroke="#d8d0c4" stroke-width="0.5" stroke-dasharray="4,4" opacity="0.6"/>
<text x="66" y="266" font-size="9" fill="#6b5e52" text-anchor="end" dominant-baseline="middle">86</text>
<line x1="70" y1="188" x2="780" y2="188" stroke="#d8d0c4" stroke-width="0.5" stroke-dasharray="4,4" opacity="0.6"/>
<text x="66" y="188" font-size="9" fill="#6b5e52" text-anchor="end" dominant-baseline="middle">130</text>
<rect x="111" y="188" width="70" height="227" fill="#2d5a27" opacity="0.72" rx="3"/>
<text x="146" y="183" font-size="10" fill="#2c2820" font-weight="700" text-anchor="middle">130k</text>
<text x="146" y="429" font-size="10" fill="#6b5e52" text-anchor="middle">| 体重 | 雄：6</text>
<rect x="222" y="415" width="70" height="0" fill="#2d5a27" opacity="0.72" rx="3"/>
<text x="257" y="410" font-size="10" fill="#2c2820" font-weight="700" text-anchor="middle">0頭</text>
<text x="257" y="429" font-size="10" fill="#6b5e52" text-anchor="middle">| 日本推定個体数 </text>
<rect x="333" y="363" width="70" height="52" fill="#2d5a27" opacity="0.72" rx="3"/>
<text x="368" y="358" font-size="10" fill="#2c2820" font-weight="700" text-anchor="middle">30%</text>
<text x="368" y="429" font-size="10" fill="#6b5e52" text-anchor="middle">- **秋（9〜11</text>
<rect x="444" y="407" width="70" height="8" fill="#2d5a27" opacity="0.72" rx="3"/>
<text x="479" y="402" font-size="10" fill="#2c2820" font-weight="700" text-anchor="middle">5℃</text>
<text x="479" y="429" font-size="10" fill="#6b5e52" text-anchor="middle">- **冬（11月〜</text>
<rect x="555" y="410" width="70" height="5" fill="#2d5a27" opacity="0.72" rx="3"/>
<text x="590" y="405" font-size="10" fill="#2c2820" font-weight="700" text-anchor="middle">3頭</text>
<text x="590" y="429" font-size="10" fill="#6b5e52" text-anchor="middle">ツキノワグマは「真冬</text>
<rect x="666" y="241" width="70" height="174" fill="#2d5a27" opacity="0.72" rx="3"/>
<text x="701" y="236" font-size="10" fill="#2c2820" font-weight="700" text-anchor="middle">100k</text>
<text x="701" y="429" font-size="10" fill="#6b5e52" text-anchor="middle">行動圏は雄で40〜1</text>
<rect x="20" y="444" width="760" height="40" fill="#eef3eb" rx="8" stroke="#d8d0c4" stroke-width="0.5"/>
<text x="40" y="466" font-size="10" fill="#2d5a27" font-weight="700" dominant-baseline="middle" letter-spacing="0.04em">| 体重 | 雄：6</text>
<text x="760" y="466" font-size="16" fill="#2c2820" font-weight="700" text-anchor="end" dominant-baseline="middle">130k</text>
</svg>